<svg width="18" height="19" viewBox="0 0 18 19" fill="none" xmlns="http://www.w3.org/2000/svg">
<path d="M18 9.8422C18 9.20108 17.9452 8.59243 17.8512 8H9V11.6601H14.0679C13.8407 12.8611 13.1749 13.8756 12.188 14.5654V17H15.2115C16.9817 15.3039 18 12.8043 18 9.8422Z" fill="#4285F4"/>
<path d="M9.04399 19C11.4775 19 13.5129 18.1102 15 16.6025L12.1009 14.1308C11.2897 14.724 10.2607 15.0865 9.04399 15.0865C6.69313 15.0865 4.70279 13.3481 3.98927 11H1V13.5458C2.47961 16.7755 5.52146 19 9.04399 19Z" fill="#34A853"/>
<path d="M4 11.4154C3.81025 10.8132 3.71157 10.1691 3.71157 9.5C3.71157 8.83085 3.81784 8.1868 4 7.58457V5H0.979126C0.356735 6.35502 0 7.87732 0 9.5C0 11.1227 0.356735 12.645 0.979126 14L4 11.4154Z" fill="#FBBC05"/>
<path d="M9.00534 3.91349C10.3284 3.91349 11.5093 4.41607 12.4437 5.3965L15 2.57878C13.4528 0.980433 11.4271 0 9.00534 0C5.49973 0 2.4725 2.22451 1 5.45417L3.97491 8C4.685 5.65191 6.66578 3.91349 9.00534 3.91349Z" fill="#EA4335"/>
</svg>
