<svg width="71" height="77" viewBox="0 0 71 77" fill="none" xmlns="http://www.w3.org/2000/svg">
<path d="M6.075 20C4.84167 20 3.775 19.7917 2.875 19.375C1.99167 18.9417 1.30833 18.3583 0.825 17.625C0.358333 16.8917 0.125 16.0583 0.125 15.125C0.125 14.775 0.183333 14.5167 0.3 14.35C0.416667 14.1833 0.633333 14.1 0.95 14.1C1.01667 14.1 1.15 14.1333 1.35 14.2C1.55 14.25 1.7 14.35 1.8 14.5C1.98333 15.05 2.21667 15.6083 2.5 16.175C2.8 16.7417 3.20833 17.2167 3.725 17.6C4.25833 17.9833 4.95 18.175 5.8 18.175C6.61667 18.175 7.35 18.0833 8 17.9C8.65 17.7 9.15833 17.3917 9.525 16.975C9.90833 16.5417 10.1 15.975 10.1 15.275C10.1 14.7417 9.94167 14.2917 9.625 13.925C9.325 13.5417 8.98333 13.2417 8.6 13.025C7.53333 12.4417 6.59167 11.95 5.775 11.55C4.95833 11.15 4.26667 10.7667 3.7 10.4C3.15 10.0167 2.725 9.56667 2.425 9.05C2.14167 8.51667 2 7.83333 2 7C2 5.73333 2.5 4.75833 3.5 4.075C4.51667 3.39167 5.83333 3.05 7.45 3.05C7.83333 3.05 8.28333 3.1 8.8 3.2C9.33333 3.28333 9.85 3.41667 10.35 3.6C10.8667 3.78333 11.2917 4.025 11.625 4.325C11.9583 4.625 12.125 4.99167 12.125 5.425C12.125 5.65833 12.0333 5.86667 11.85 6.05C11.6667 6.23333 11.45 6.325 11.2 6.325C10.8333 6.325 10.525 6.25833 10.275 6.125C10.0417 5.975 9.78333 5.80833 9.5 5.625C9.18333 5.40833 8.81667 5.20833 8.4 5.025C8 4.84167 7.48333 4.75 6.85 4.75C6.36667 4.75 5.9 4.84167 5.45 5.025C5 5.19167 4.625 5.43333 4.325 5.75C4.04167 6.06667 3.9 6.43333 3.9 6.85C3.9 7.38333 4.05 7.84167 4.35 8.225C4.65 8.60833 5.00833 8.94167 5.425 9.225C5.625 9.34167 5.84167 9.46667 6.075 9.6C6.30833 9.71667 6.55 9.84167 6.8 9.975C7.03333 10.0917 7.275 10.2083 7.525 10.325C7.79167 10.4417 8.05 10.5667 8.3 10.7C9 11.0333 9.63333 11.4 10.2 11.8C10.7833 12.2 11.25 12.675 11.6 13.225C11.95 13.775 12.125 14.4583 12.125 15.275C12.125 16.275 11.8333 17.1333 11.25 17.85C10.6667 18.55 9.91667 19.0833 9 19.45C8.08333 19.8167 7.10833 20 6.075 20ZM15.8746 20.25C15.6413 20.25 15.4496 20.1667 15.2996 20C15.1496 19.8333 15.0746 19.65 15.0746 19.45V18.975L16.0246 9.325V3.3C16.0246 3.01667 16.0329 2.68333 16.0496 2.3C16.0663 1.91667 16.1413 1.575 16.2746 1.275C16.4246 0.975 16.6913 0.825 17.0746 0.825C17.4579 0.825 17.7246 1.05 17.8746 1.5C17.9579 1.75 17.9996 2.025 17.9996 2.325C18.0163 2.60833 18.0246 2.89167 18.0246 3.175C18.0246 4.275 17.9829 5.45 17.8996 6.7C17.8163 7.93333 17.7746 9.24167 17.7746 10.625C18.4246 10.425 19.0746 10.2167 19.7246 10C20.3746 9.78333 20.9496 9.58333 21.4496 9.4C21.9663 9.21667 22.3329 9.08333 22.5496 9C22.7496 8.9 22.9913 8.775 23.2746 8.625C23.5746 8.475 23.8829 8.33333 24.1996 8.2C24.5163 8.06667 24.8079 7.95833 25.0746 7.875C25.3579 7.775 25.5996 7.725 25.7996 7.725C26.0329 7.725 26.2246 7.80833 26.3746 7.975C26.5246 8.14167 26.5996 8.36667 26.5996 8.65C26.5996 8.91667 26.4496 9.11667 26.1496 9.25C25.8496 9.38333 25.5746 9.5 25.3246 9.6C25.1913 9.66667 24.8579 9.80833 24.3246 10.025C23.7913 10.2417 23.1663 10.4917 22.4496 10.775C21.7496 11.0417 21.0496 11.3083 20.3496 11.575C19.6496 11.8417 19.0579 12.0583 18.5746 12.225C18.6246 12.275 18.8246 12.425 19.1746 12.675C19.5413 12.925 19.9996 13.2417 20.5496 13.625C21.0996 13.9917 21.6829 14.3833 22.2996 14.8C22.9163 15.2 23.5163 15.5917 24.0996 15.975C24.6829 16.3417 25.1829 16.6583 25.5996 16.925C26.0163 17.175 26.2913 17.3417 26.4246 17.425C26.6079 17.5583 26.7913 17.6917 26.9746 17.825C27.1579 17.9417 27.3329 18.075 27.4996 18.225C27.7996 18.475 27.9496 18.7167 27.9496 18.95C27.9496 19.2333 27.8746 19.4583 27.7246 19.625C27.5746 19.775 27.4246 19.85 27.2746 19.85C26.8079 19.85 26.2663 19.6167 25.6496 19.15C25.3329 18.9333 25.0329 18.7083 24.7496 18.475C24.4663 18.2417 24.2079 18.0417 23.9746 17.875C23.8246 17.775 23.5579 17.6 23.1746 17.35C22.8079 17.1 22.3663 16.8083 21.8496 16.475C21.3329 16.1417 20.7996 15.8 20.2496 15.45C19.6996 15.0833 19.1746 14.7333 18.6746 14.4C18.1746 14.0667 17.7496 13.7833 17.3996 13.55L16.6746 19.5C16.6246 19.7333 16.5163 19.9167 16.3496 20.05C16.1996 20.1833 16.0413 20.25 15.8746 20.25ZM33.5625 26.55C33.5125 26.55 33.4375 26.4833 33.3375 26.35C33.2375 26.2167 33.1875 26.0167 33.1875 25.75C33.1875 25.5167 33.2125 25.2833 33.2625 25.05C33.3292 24.8167 33.4125 24.5833 33.5125 24.35C33.6292 24.1 33.7458 23.85 33.8625 23.6C33.9792 23.35 34.0958 23.1 34.2125 22.85C34.3125 22.6 34.4292 22.2833 34.5625 21.9C34.7125 21.5167 34.8542 21.125 34.9875 20.725C35.1208 20.3417 35.2292 20.0083 35.3125 19.725C35.4125 19.4417 35.4625 19.2833 35.4625 19.25V18.6C34.4292 18.6 33.5708 18.4083 32.8875 18.025C32.2042 17.6417 31.6625 17.1333 31.2625 16.5C30.8625 15.8667 30.5708 15.1667 30.3875 14.4C30.2042 13.6167 30.0792 12.825 30.0125 12.025C29.9625 11.2083 29.9375 10.45 29.9375 9.75C29.9375 9.41667 29.9458 9.09167 29.9625 8.775C29.9792 8.45833 30.0208 8.14167 30.0875 7.825C30.1708 7.44167 30.2708 7.19167 30.3875 7.075C30.5208 6.94167 30.6458 6.875 30.7625 6.875C31.1458 6.875 31.4125 7.025 31.5625 7.325C31.7292 7.60833 31.8125 8.025 31.8125 8.575C31.8125 8.95833 31.7875 9.325 31.7375 9.675C31.6875 10.0083 31.6625 10.375 31.6625 10.775V11.025C31.6625 11.175 31.6875 11.4667 31.7375 11.9C31.8042 12.3167 31.8708 12.7417 31.9375 13.175C32.0042 13.6083 32.0542 13.9333 32.0875 14.15C32.1708 14.5167 32.2958 14.9083 32.4625 15.325C32.6292 15.725 32.8625 16.0667 33.1625 16.35C33.4792 16.6333 33.8792 16.775 34.3625 16.775C35.0125 16.775 35.5875 16.5417 36.0875 16.075C36.6042 15.5917 37.0708 14.975 37.4875 14.225C37.9208 13.4583 38.3125 12.6583 38.6625 11.825C38.7958 11.5417 38.9208 11.2583 39.0375 10.975C39.1542 10.6917 39.2708 10.4167 39.3875 10.15C39.5208 9.88333 39.6458 9.63333 39.7625 9.4C39.8792 9.16667 40.0042 8.94167 40.1375 8.725C40.4042 8.29167 40.6458 7.98333 40.8625 7.8C41.0958 7.61667 41.3208 7.525 41.5375 7.525C41.7542 7.525 41.9125 7.58333 42.0125 7.7C42.1292 7.81667 42.1875 8.01667 42.1875 8.3C42.1875 8.81667 42.0958 9.325 41.9125 9.825C41.7458 10.325 41.5292 10.825 41.2625 11.325C40.9792 11.8417 40.6792 12.35 40.3625 12.85C40.0458 13.35 39.7708 13.85 39.5375 14.35C39.4042 14.65 39.2208 15.0583 38.9875 15.575C38.7708 16.075 38.5375 16.6 38.2875 17.15C38.0542 17.6833 37.8458 18.1583 37.6625 18.575C37.4958 18.9917 37.3958 19.25 37.3625 19.35C37.3458 19.4333 37.2792 19.625 37.1625 19.925C37.0458 20.2083 36.9125 20.55 36.7625 20.95C36.6292 21.35 36.4875 21.75 36.3375 22.15C36.1875 22.5667 36.0542 22.9167 35.9375 23.2C35.8375 23.5 35.7708 23.6917 35.7375 23.775C35.6375 24.075 35.4958 24.4417 35.3125 24.875C35.1292 25.3083 34.8958 25.6917 34.6125 26.025C34.3458 26.375 33.9958 26.55 33.5625 26.55ZM48.5176 48.125C48.2842 48.125 48.0592 47.9917 47.8426 47.725C47.6426 47.4583 47.5092 47.1417 47.4426 46.775V45.5C47.4426 44.65 47.5259 43.8 47.6926 42.95C47.8759 42.0833 47.9676 41.2333 47.9676 40.4V39.9C47.3176 39.25 46.7426 38.6333 46.2426 38.05C45.7592 37.45 45.3259 36.8333 44.9426 36.2C44.5759 35.5667 44.2342 34.8417 43.9176 34.025C43.7509 33.5917 43.5759 33.1333 43.3926 32.65C43.2259 32.1667 43.1426 31.6917 43.1426 31.225C43.1426 30.9417 43.2259 30.7167 43.3926 30.55C43.5592 30.3833 43.7509 30.3 43.9676 30.3C44.5176 30.3 44.9342 30.6333 45.2176 31.3C45.3009 31.4667 45.3676 31.6417 45.4176 31.825C45.4676 32.0083 45.5176 32.1917 45.5676 32.375C45.6176 32.5917 45.6592 32.7917 45.6926 32.975C45.7426 33.1583 45.8009 33.325 45.8676 33.475C45.9342 33.6417 46.0509 33.9083 46.2176 34.275C46.3842 34.625 46.5842 35.0167 46.8176 35.45C47.0509 35.8833 47.3009 36.3 47.5676 36.7C47.8509 37.0833 48.1342 37.4 48.4176 37.65C48.7009 37.9 48.9592 38.025 49.1926 38.025C49.7759 38.025 50.3759 37.5833 50.9926 36.7C51.2259 36.3667 51.4592 35.9833 51.6926 35.55C51.9259 35.1167 52.1676 34.675 52.4176 34.225C52.7176 33.6917 53.0009 33.175 53.2676 32.675C53.5509 32.175 53.8426 31.7667 54.1426 31.45C54.4426 31.1167 54.7592 30.95 55.0926 30.95C55.3426 30.95 55.5176 31.0333 55.6176 31.2C55.7342 31.3667 55.7926 31.575 55.7926 31.825C55.7926 32.1083 55.7342 32.4333 55.6176 32.8C55.5176 33.15 55.3759 33.4833 55.1926 33.8C55.0092 34.1167 54.8092 34.4333 54.5926 34.75C54.3759 35.0667 54.1676 35.3667 53.9676 35.65C53.3342 36.5167 52.7509 37.2833 52.2176 37.95C51.6842 38.6167 51.0759 39.2667 50.3926 39.9C50.2759 40.3833 50.1259 41.0333 49.9426 41.85C49.7759 42.6667 49.6342 43.6667 49.5176 44.85C49.4676 45.4 49.4176 45.925 49.3676 46.425C49.3342 46.925 49.2592 47.3333 49.1426 47.65C49.0259 47.9667 48.8176 48.125 48.5176 48.125ZM62.5393 48.25C61.7893 48.25 61.0893 48.0833 60.4393 47.75C59.8059 47.4167 59.2726 46.9667 58.8393 46.4C58.4059 45.8333 58.1226 45.2 57.9893 44.5V43.175C57.9893 42.225 58.1643 41.2667 58.5143 40.3C58.8643 39.3333 59.3476 38.4417 59.9643 37.625C60.5976 36.8083 61.3393 36.1583 62.1893 35.675C63.0559 35.175 63.9893 34.925 64.9893 34.925C65.6226 34.925 66.2309 35.0333 66.8143 35.25C67.4143 35.4667 67.9476 35.7167 68.4143 36C68.5143 35.3 68.6393 34.8167 68.7893 34.55C68.9393 34.2833 69.1976 34.15 69.5643 34.15C69.8476 34.15 70.0476 34.2417 70.1643 34.425C70.2809 34.5917 70.3393 34.8917 70.3393 35.325C70.3393 36.325 70.3143 37.3083 70.2643 38.275C70.2309 39.225 70.2143 40.2 70.2143 41.2C70.2143 42 70.2559 42.825 70.3393 43.675C70.4393 44.525 70.4893 45.3417 70.4893 46.125C70.4893 46.375 70.4893 46.625 70.4893 46.875C70.5059 47.125 70.4643 47.3333 70.3643 47.5C70.2809 47.65 70.0976 47.725 69.8143 47.725C69.4143 47.725 69.1143 47.5417 68.9143 47.175C68.7309 46.7917 68.6059 46.3333 68.5393 45.8C68.4726 45.2667 68.4059 44.7667 68.3393 44.3C68.1726 44.75 67.8893 45.1917 67.4893 45.625C67.1059 46.0583 66.7143 46.4333 66.3143 46.75C65.9309 47.05 65.6309 47.2667 65.4143 47.4C65.2143 47.5167 65.2143 47.5 65.4143 47.35C65.0476 47.6167 64.5893 47.8333 64.0393 48C63.5059 48.1667 63.0059 48.25 62.5393 48.25ZM62.2893 46.675C63.0393 46.675 63.7393 46.4583 64.3893 46.025C65.0393 45.5917 65.6059 45.0333 66.0893 44.35C66.5893 43.6667 66.9726 42.95 67.2393 42.2C67.5226 41.45 67.6643 40.7583 67.6643 40.125C67.6643 39.8083 67.6226 39.45 67.5393 39.05C67.4726 38.6333 67.3393 38.2333 67.1393 37.85C66.9393 37.4667 66.6643 37.15 66.3143 36.9C65.9809 36.65 65.5393 36.525 64.9893 36.525C64.2726 36.525 63.5893 36.7583 62.9393 37.225C62.2893 37.675 61.7059 38.2583 61.1893 38.975C60.6893 39.675 60.2976 40.4 60.0143 41.15C59.7309 41.9 59.5893 42.575 59.5893 43.175C59.5893 43.625 59.6643 44.125 59.8143 44.675C59.9809 45.225 60.2559 45.7 60.6393 46.1C61.0393 46.4833 61.5893 46.675 62.2893 46.675ZM2.525 76.125C2.20833 76.125 1.96667 76 1.8 75.75C1.63333 75.5 1.51667 75.1917 1.45 74.825C1.38333 74.4583 1.34167 74.0917 1.325 73.725C1.325 73.3583 1.325 73.0667 1.325 72.85C1.325 72.7167 1.31667 72.5667 1.3 72.4C1.3 72.2333 1.3 72.0667 1.3 71.9C1.3 71.0667 1.325 70.0583 1.375 68.875C1.425 67.675 1.49167 66.4167 1.575 65.1C1.675 63.7667 1.78333 62.4667 1.9 61.2C2.03333 59.9333 2.175 58.8083 2.325 57.825C2.45833 57.3417 2.63333 56.9917 2.85 56.775C3.08333 56.5583 3.30833 56.45 3.525 56.45C3.725 56.45 3.9 56.5417 4.05 56.725C4.21667 56.9083 4.3 57.1667 4.3 57.5C4.3 57.5667 4.3 57.625 4.3 57.675C4.3 57.725 4.29167 57.7833 4.275 57.85C3.85833 59.8667 3.59167 61.975 3.475 64.175C3.35833 66.375 3.3 68.4917 3.3 70.525C3.3 71.3583 3.30833 72.1 3.325 72.75C3.35833 73.3833 3.375 74.0417 3.375 74.725C3.375 75.0917 3.29167 75.4167 3.125 75.7C2.975 75.9833 2.775 76.125 2.525 76.125ZM11.0436 76.5C10.6269 76.5 10.3186 76.3667 10.1186 76.1C9.91855 75.8333 9.78522 75.5 9.71856 75.1C9.66855 74.7 9.64355 74.3083 9.64355 73.925C9.64355 73.7417 9.64355 73.5667 9.64355 73.4C9.66022 73.2333 9.66855 73.0917 9.66855 72.975C9.66855 71.775 9.69355 70.5667 9.74356 69.35C9.79355 68.1167 9.81855 66.775 9.81855 65.325C9.20189 65.325 8.69355 65.35 8.29355 65.4C7.89355 65.45 7.49355 65.475 7.09355 65.475C6.82689 65.475 6.64355 65.425 6.54355 65.325C6.44355 65.225 6.39355 65.0583 6.39355 64.825C6.39355 64.5583 6.42689 64.3667 6.49355 64.25C6.57689 64.1167 6.67689 64.0333 6.79355 64L9.24355 63.5C9.61022 63.4167 9.86855 63.25 10.0186 63C10.1852 62.75 10.3019 62.5083 10.3686 62.275C10.4019 62.1417 10.4186 62.0167 10.4186 61.9C10.4352 61.7667 10.4519 61.625 10.4686 61.475C10.4686 61.3417 10.4686 61.2167 10.4686 61.1C10.4852 60.9667 10.4936 60.8417 10.4936 60.725C10.5269 60.1917 10.6102 59.8 10.7436 59.55C10.8936 59.3 11.1769 59.175 11.5936 59.175C11.9769 59.175 12.2019 59.325 12.2686 59.625C12.3519 59.925 12.3936 60.2083 12.3936 60.475C12.3936 60.6583 12.3769 60.9417 12.3436 61.325C12.3269 61.6917 12.3102 62.0583 12.2936 62.425C12.2769 62.7917 12.2602 63.0583 12.2436 63.225H16.2436C16.3936 63.225 16.5436 63.325 16.6936 63.525C16.8436 63.725 16.9186 63.9833 16.9186 64.3C16.9186 64.4 16.8769 64.5333 16.7936 64.7C16.7102 64.85 16.6102 64.925 16.4936 64.925C16.3269 64.925 16.0102 64.9333 15.5436 64.95C15.0936 64.95 14.6019 64.9583 14.0686 64.975C13.5519 64.9917 13.0936 65.0083 12.6936 65.025C12.2936 65.0417 12.0686 65.0667 12.0186 65.1C11.9352 66.1 11.8686 67.0667 11.8186 68C11.7852 68.9167 11.7686 69.8083 11.7686 70.675C11.7686 71.2417 11.7769 71.7917 11.7936 72.325C11.8269 72.8417 11.8519 73.3583 11.8686 73.875C11.8686 73.9583 11.8769 74.0833 11.8936 74.25C11.9102 74.4167 11.9186 74.6 11.9186 74.8C11.9186 75.1833 11.8602 75.5667 11.7436 75.95C11.6436 76.3167 11.4102 76.5 11.0436 76.5ZM23.4523 76.25C22.7023 76.25 22.0023 76.0833 21.3523 75.75C20.719 75.4167 20.1857 74.9667 19.7523 74.4C19.319 73.8333 19.0357 73.2 18.9023 72.5V71.175C18.9023 70.225 19.0773 69.2667 19.4273 68.3C19.7773 67.3333 20.2607 66.4417 20.8773 65.625C21.5107 64.8083 22.2523 64.1583 23.1023 63.675C23.969 63.175 24.9023 62.925 25.9023 62.925C26.5357 62.925 27.144 63.0333 27.7273 63.25C28.3273 63.4667 28.8607 63.7167 29.3273 64C29.4273 63.3 29.5523 62.8167 29.7023 62.55C29.8523 62.2833 30.1107 62.15 30.4773 62.15C30.7607 62.15 30.9607 62.2417 31.0773 62.425C31.194 62.5917 31.2523 62.8917 31.2523 63.325C31.2523 64.325 31.2273 65.3083 31.1773 66.275C31.144 67.225 31.1273 68.2 31.1273 69.2C31.1273 70 31.169 70.825 31.2523 71.675C31.3523 72.525 31.4023 73.3417 31.4023 74.125C31.4023 74.375 31.4023 74.625 31.4023 74.875C31.419 75.125 31.3773 75.3333 31.2773 75.5C31.194 75.65 31.0107 75.725 30.7273 75.725C30.3273 75.725 30.0273 75.5417 29.8273 75.175C29.644 74.7917 29.519 74.3333 29.4523 73.8C29.3857 73.2667 29.319 72.7667 29.2523 72.3C29.0857 72.75 28.8023 73.1917 28.4023 73.625C28.019 74.0583 27.6273 74.4333 27.2273 74.75C26.844 75.05 26.544 75.2667 26.3273 75.4C26.1273 75.5167 26.1273 75.5 26.3273 75.35C25.9607 75.6167 25.5023 75.8333 24.9523 76C24.419 76.1667 23.919 76.25 23.4523 76.25ZM23.2023 74.675C23.9523 74.675 24.6523 74.4583 25.3023 74.025C25.9523 73.5917 26.519 73.0333 27.0023 72.35C27.5023 71.6667 27.8857 70.95 28.1523 70.2C28.4357 69.45 28.5773 68.7583 28.5773 68.125C28.5773 67.8083 28.5357 67.45 28.4523 67.05C28.3857 66.6333 28.2523 66.2333 28.0523 65.85C27.8523 65.4667 27.5773 65.15 27.2273 64.9C26.894 64.65 26.4523 64.525 25.9023 64.525C25.1857 64.525 24.5023 64.7583 23.8523 65.225C23.2023 65.675 22.619 66.2583 22.1023 66.975C21.6023 67.675 21.2107 68.4 20.9273 69.15C20.644 69.9 20.5023 70.575 20.5023 71.175C20.5023 71.625 20.5773 72.125 20.7273 72.675C20.894 73.225 21.169 73.7 21.5523 74.1C21.9523 74.4833 22.5023 74.675 23.2023 74.675Z" fill="#2F80ED"/>
<path d="M47.615 20.25C47.215 20.25 46.9067 20.1 46.69 19.8C46.49 19.5 46.3484 19.1333 46.265 18.7C46.1984 18.2667 46.1567 17.8417 46.14 17.425C46.14 17.0083 46.14 16.6917 46.14 16.475V13.7C46.14 12.45 46.2067 11.1583 46.34 9.825C46.4734 8.49167 46.54 7.075 46.54 5.575C45.6734 5.575 45.0984 5.5 44.815 5.35C44.5484 5.2 44.415 4.875 44.415 4.375C44.415 4.09167 44.565 3.84167 44.865 3.625C45.165 3.40833 45.5817 3.26667 46.115 3.2C46.265 3.15 46.5484 3.1 46.965 3.05C47.3984 3 47.8817 2.95833 48.415 2.925C48.9484 2.875 49.4567 2.84167 49.94 2.825C50.44 2.79167 50.8317 2.775 51.115 2.775C52.765 2.775 54.115 2.91667 55.165 3.2C56.215 3.46667 56.99 3.925 57.49 4.575C58.0067 5.225 58.265 6.125 58.265 7.275C58.265 8.09167 58.0484 8.875 57.615 9.625C57.1984 10.3583 56.6317 11.0167 55.915 11.6C55.1984 12.1833 54.39 12.6583 53.49 13.025C52.59 13.3917 51.6734 13.6167 50.74 13.7C50.5734 13.7167 50.3984 13.7333 50.215 13.75C50.0317 13.75 49.8317 13.75 49.615 13.75C49.115 13.75 48.6234 13.725 48.14 13.675C48.14 14.5917 48.1567 15.3833 48.19 16.05C48.24 16.7 48.265 17.3167 48.265 17.9V18.675C48.265 18.9583 48.24 19.2417 48.19 19.525C48.1234 19.8083 48.04 20 47.94 20.1C47.8567 20.2 47.7484 20.25 47.615 20.25ZM51.19 11.6C51.5734 11.6 52.0567 11.475 52.64 11.225C53.2234 10.9583 53.8067 10.6167 54.39 10.2C54.9734 9.76667 55.4567 9.29167 55.84 8.775C56.24 8.25833 56.44 7.75 56.44 7.25C56.44 6.56667 56.265 6.06667 55.915 5.75C55.565 5.41667 55.1317 5.19167 54.615 5.075C54.115 4.95833 53.6067 4.85833 53.09 4.775C52.8234 4.725 52.5234 4.69167 52.19 4.675C51.8734 4.65833 51.5484 4.65 51.215 4.65C50.3984 4.65 49.74 4.69167 49.24 4.775C49.1234 4.79167 49.0067 4.85 48.89 4.95C48.7734 5.03333 48.6984 5.175 48.665 5.375C48.5817 5.99167 48.5067 6.675 48.44 7.425C48.3734 8.175 48.315 8.91667 48.265 9.65C48.215 10.3667 48.1734 11.0167 48.14 11.6H51.19ZM62.7789 20.125C62.4622 20.125 62.2206 20 62.0539 19.75C61.8872 19.5 61.7706 19.1917 61.7039 18.825C61.6372 18.4583 61.5956 18.0917 61.5789 17.725C61.5789 17.3583 61.5789 17.0667 61.5789 16.85C61.5789 16.7167 61.5706 16.5667 61.5539 16.4C61.5539 16.2333 61.5539 16.0667 61.5539 15.9C61.5539 15.0667 61.5789 14.0583 61.6289 12.875C61.6789 11.675 61.7456 10.4167 61.8289 9.1C61.9289 7.76667 62.0372 6.46667 62.1539 5.2C62.2872 3.93333 62.4289 2.80833 62.5789 1.825C62.7122 1.34167 62.8872 0.991666 63.1039 0.774999C63.3372 0.558332 63.5622 0.449998 63.7789 0.449998C63.9789 0.449998 64.1539 0.541665 64.3039 0.724999C64.4706 0.908332 64.5539 1.16667 64.5539 1.5C64.5539 1.56667 64.5539 1.625 64.5539 1.675C64.5539 1.725 64.5456 1.78333 64.5289 1.85C64.1122 3.86667 63.8456 5.975 63.7289 8.175C63.6122 10.375 63.5539 12.4917 63.5539 14.525C63.5539 15.3583 63.5622 16.1 63.5789 16.75C63.6122 17.3833 63.6289 18.0417 63.6289 18.725C63.6289 19.0917 63.5456 19.4167 63.3789 19.7C63.2289 19.9833 63.0289 20.125 62.7789 20.125ZM4.8 48.25C4.05 48.25 3.35 48.0833 2.7 47.75C2.06667 47.4167 1.53333 46.9667 1.1 46.4C0.666667 45.8333 0.383333 45.2 0.25 44.5V43.175C0.25 42.225 0.425 41.2667 0.775 40.3C1.125 39.3333 1.60833 38.4417 2.225 37.625C2.85833 36.8083 3.6 36.1583 4.45 35.675C5.31667 35.175 6.25 34.925 7.25 34.925C7.88333 34.925 8.49167 35.0333 9.075 35.25C9.675 35.4667 10.2083 35.7167 10.675 36C10.775 35.3 10.9 34.8167 11.05 34.55C11.2 34.2833 11.4583 34.15 11.825 34.15C12.1083 34.15 12.3083 34.2417 12.425 34.425C12.5417 34.5917 12.6 34.8917 12.6 35.325C12.6 36.325 12.575 37.3083 12.525 38.275C12.4917 39.225 12.475 40.2 12.475 41.2C12.475 42 12.5167 42.825 12.6 43.675C12.7 44.525 12.75 45.3417 12.75 46.125C12.75 46.375 12.75 46.625 12.75 46.875C12.7667 47.125 12.725 47.3333 12.625 47.5C12.5417 47.65 12.3583 47.725 12.075 47.725C11.675 47.725 11.375 47.5417 11.175 47.175C10.9917 46.7917 10.8667 46.3333 10.8 45.8C10.7333 45.2667 10.6667 44.7667 10.6 44.3C10.4333 44.75 10.15 45.1917 9.75 45.625C9.36667 46.0583 8.975 46.4333 8.575 46.75C8.19167 47.05 7.89167 47.2667 7.675 47.4C7.475 47.5167 7.475 47.5 7.675 47.35C7.30833 47.6167 6.85 47.8333 6.3 48C5.76667 48.1667 5.26667 48.25 4.8 48.25ZM4.55 46.675C5.3 46.675 6 46.4583 6.65 46.025C7.3 45.5917 7.86667 45.0333 8.35 44.35C8.85 43.6667 9.23333 42.95 9.5 42.2C9.78333 41.45 9.925 40.7583 9.925 40.125C9.925 39.8083 9.88333 39.45 9.8 39.05C9.73333 38.6333 9.6 38.2333 9.4 37.85C9.2 37.4667 8.925 37.15 8.575 36.9C8.24167 36.65 7.8 36.525 7.25 36.525C6.53333 36.525 5.85 36.7583 5.2 37.225C4.55 37.675 3.96667 38.2583 3.45 38.975C2.95 39.675 2.55833 40.4 2.275 41.15C1.99167 41.9 1.85 42.575 1.85 43.175C1.85 43.625 1.925 44.125 2.075 44.675C2.24167 45.225 2.51667 45.7 2.9 46.1C3.3 46.4833 3.85 46.675 4.55 46.675ZM17.3594 48.125C17.1094 48.125 16.826 48.1083 16.5094 48.075C16.1927 48.0417 15.9177 47.9583 15.6844 47.825C15.451 47.6917 15.3094 47.475 15.2594 47.175C15.2594 46.875 15.2677 46.6167 15.2844 46.4C15.301 46.1833 15.4427 45.9167 15.7094 45.6C16.1594 45.0333 16.6927 44.4167 17.3094 43.75C17.926 43.0667 18.5594 42.3917 19.2094 41.725C19.876 41.0417 20.5177 40.4 21.1344 39.8C21.7677 39.2 22.3177 38.6917 22.7844 38.275C23.0177 38.0417 23.1344 37.8333 23.1344 37.65C23.1344 37.35 22.8344 37.2 22.2344 37.2H20.8094C20.3427 37.2 19.951 37.2083 19.6344 37.225C19.3344 37.225 19.0427 37.2333 18.7594 37.25C18.4927 37.2667 18.176 37.3 17.8094 37.35C17.7427 37.3667 17.676 37.375 17.6094 37.375C17.5427 37.375 17.476 37.375 17.4094 37.375C17.2594 37.375 17.1344 37.3417 17.0344 37.275C16.9344 37.1917 16.8844 37.0333 16.8844 36.8C16.8844 36.4167 17.051 36.1833 17.3844 36.1C17.7177 36 18.0344 35.925 18.3344 35.875C18.6177 35.8417 18.9677 35.8167 19.3844 35.8C19.8177 35.7833 20.2844 35.775 20.7844 35.775C21.2677 35.775 21.7677 35.7917 22.2844 35.825C22.801 35.8417 23.2844 35.8917 23.7344 35.975C24.3177 36.0917 24.7594 36.2667 25.0594 36.5C25.376 36.7333 25.5344 37.0667 25.5344 37.5C25.5344 37.85 25.3844 38.1917 25.0844 38.525C24.7844 38.8583 24.426 39.2 24.0094 39.55C23.5927 39.8833 23.201 40.2333 22.8344 40.6C22.4344 40.9833 21.9427 41.4667 21.3594 42.05C20.776 42.6333 20.201 43.225 19.6344 43.825C19.0677 44.4083 18.6177 44.925 18.2844 45.375C18.1677 45.5417 18.076 45.6833 18.0094 45.8C17.9427 45.9 17.9094 45.9917 17.9094 46.075C17.9094 46.1917 18.0344 46.25 18.2844 46.25C19.3177 46.25 20.2927 46.2 21.2094 46.1C22.1427 45.9833 22.9844 45.8917 23.7344 45.825C23.8177 45.8083 23.901 45.8 23.9844 45.8C24.0677 45.8 24.1427 45.8 24.2094 45.8C24.576 45.8 24.8844 45.8583 25.1344 45.975C25.401 46.0917 25.5344 46.3167 25.5344 46.65C25.5344 47 25.3844 47.2583 25.0844 47.425C24.801 47.575 24.4594 47.675 24.0594 47.725C23.676 47.775 23.3344 47.8167 23.0344 47.85C22.8844 47.85 22.5677 47.8667 22.0844 47.9C21.6177 47.9333 21.076 47.9667 20.4594 48C19.8594 48.0333 19.276 48.0583 18.7094 48.075C18.1427 48.1083 17.6927 48.125 17.3594 48.125ZM32.5832 48.25C31.8332 48.25 31.1332 48.0833 30.4832 47.75C29.8499 47.4167 29.3165 46.9667 28.8832 46.4C28.4499 45.8333 28.1665 45.2 28.0332 44.5V43.175C28.0332 42.225 28.2082 41.2667 28.5582 40.3C28.9082 39.3333 29.3915 38.4417 30.0082 37.625C30.6415 36.8083 31.3832 36.1583 32.2332 35.675C33.0999 35.175 34.0332 34.925 35.0332 34.925C35.6665 34.925 36.2749 35.0333 36.8582 35.25C37.4582 35.4667 37.9915 35.7167 38.4582 36C38.5582 35.3 38.6832 34.8167 38.8332 34.55C38.9832 34.2833 39.2415 34.15 39.6082 34.15C39.8915 34.15 40.0915 34.2417 40.2082 34.425C40.3249 34.5917 40.3832 34.8917 40.3832 35.325C40.3832 36.325 40.3582 37.3083 40.3082 38.275C40.2749 39.225 40.2582 40.2 40.2582 41.2C40.2582 42 40.2999 42.825 40.3832 43.675C40.4832 44.525 40.5332 45.3417 40.5332 46.125C40.5332 46.375 40.5332 46.625 40.5332 46.875C40.5499 47.125 40.5082 47.3333 40.4082 47.5C40.3249 47.65 40.1415 47.725 39.8582 47.725C39.4582 47.725 39.1582 47.5417 38.9582 47.175C38.7749 46.7917 38.6499 46.3333 38.5832 45.8C38.5165 45.2667 38.4499 44.7667 38.3832 44.3C38.2165 44.75 37.9332 45.1917 37.5332 45.625C37.1499 46.0583 36.7582 46.4333 36.3582 46.75C35.9749 47.05 35.6749 47.2667 35.4582 47.4C35.2582 47.5167 35.2582 47.5 35.4582 47.35C35.0915 47.6167 34.6332 47.8333 34.0832 48C33.5499 48.1667 33.0499 48.25 32.5832 48.25ZM32.3332 46.675C33.0832 46.675 33.7832 46.4583 34.4332 46.025C35.0832 45.5917 35.6499 45.0333 36.1332 44.35C36.6332 43.6667 37.0165 42.95 37.2832 42.2C37.5665 41.45 37.7082 40.7583 37.7082 40.125C37.7082 39.8083 37.6665 39.45 37.5832 39.05C37.5165 38.6333 37.3832 38.2333 37.1832 37.85C36.9832 37.4667 36.7082 37.15 36.3582 36.9C36.0249 36.65 35.5832 36.525 35.0332 36.525C34.3165 36.525 33.6332 36.7583 32.9832 37.225C32.3332 37.675 31.7499 38.2583 31.2332 38.975C30.7332 39.675 30.3415 40.4 30.0582 41.15C29.7749 41.9 29.6332 42.575 29.6332 43.175C29.6332 43.625 29.7082 44.125 29.8582 44.675C30.0249 45.225 30.2999 45.7 30.6832 46.1C31.0832 46.4833 31.6332 46.675 32.3332 46.675Z" fill="#43C453"/>
</svg>
