<svg width="18" height="17" viewBox="0 0 18 17" fill="none" xmlns="http://www.w3.org/2000/svg">
<path d="M4.45927 0.891846H2.83765H1.86468C1.54036 0.999954 0.891707 1.3459 0.891707 1.86482C0.891707 2.51347 0.567383 2.51347 0.567383 3.81076C0.567383 5.10806 0.567383 4.45941 0.891707 5.10806C1.21603 5.75671 0.891707 5.75671 1.21603 6.08104C1.54036 6.40536 1.37245 6.40536 1.54036 7.37833C1.70826 8.35131 2.189 8.35131 2.51333 8.99995C2.83765 9.6486 2.83765 9.32428 2.83765 9.97293C2.83765 10.6216 3.16198 10.2973 3.81063 10.9459C4.45927 11.5945 4.13495 11.2702 4.45927 11.9189C4.7836 12.5675 5.43225 12.5675 6.0809 13.2162C6.72954 13.8648 7.05387 14.5135 7.37819 14.8378C7.70252 15.1621 8.35117 15.1621 8.67549 15.4864C8.99981 15.8108 10.6214 16.7837 11.2701 16.7837C11.9187 16.7837 12.2431 17.1081 12.8917 16.7837C13.5404 16.4594 13.5404 17.1081 14.5133 16.7837C15.4863 16.4594 15.162 16.7837 16.4593 16.1351L17.1079 15.8108C17.216 15.5945 17.4322 15.0973 17.4322 14.8378C17.4322 14.5783 17.216 14.2973 17.1079 14.1891C16.9998 13.9729 16.7187 13.4756 16.4593 13.2162C16.1349 12.8918 15.8106 12.8918 15.8106 12.5675C15.8106 12.3081 15.3782 12.2432 15.162 12.2432C14.9458 12.1351 14.3836 11.9189 13.8647 11.9189C13.216 11.9189 12.8917 11.9189 12.5674 12.2432C12.3079 12.5027 12.2431 12.7837 12.2431 12.8918C11.8106 12.8918 10.8809 12.827 10.6214 12.5675C10.362 12.3081 8.56738 11.5945 7.70252 11.2702L6.40522 10.6216C6.0809 10.1891 5.43225 9.19455 5.43225 8.67563C5.43225 8.02698 4.7836 7.70266 4.7836 7.37833C4.7836 7.05401 4.7836 7.05401 5.43225 6.40536C6.0809 5.75671 5.75657 5.43239 6.0809 5.10806C6.34036 4.8486 5.97279 3.91887 5.75657 3.48644L4.45927 0.891846Z" fill="white"/>
</svg>
