<svg width="19" height="16" viewBox="0 0 19 16" fill="none" xmlns="http://www.w3.org/2000/svg">
<path fill-rule="evenodd" clip-rule="evenodd" d="M1.3009 6.90067C6.40013 4.64981 9.79476 3.15417 11.4994 2.42856C16.3509 0.370208 17.3707 0.0148083 18.0264 0C18.1721 0 18.4926 0.0296168 18.7111 0.207316C18.8859 0.355399 18.9297 0.547908 18.9588 0.695991C18.9879 0.844074 19.0171 1.15505 18.9879 1.39198C18.7257 4.20556 17.5893 11.0322 17.0065 14.1715C16.7588 15.5043 16.2781 15.9485 15.8118 15.993C14.792 16.0818 14.0198 15.3118 13.0437 14.6602C11.4994 13.6384 10.6398 13.0017 9.13914 11.9947C7.40541 10.8397 8.52723 10.2029 9.51794 9.16634C9.78019 8.89979 14.2529 4.75347 14.3404 4.38326C14.3549 4.33883 14.3549 4.16113 14.2529 4.07228C14.151 3.98343 14.0053 4.01305 13.8887 4.04267C13.7284 4.07228 11.2808 5.73081 6.51668 9.00345C5.81736 9.49212 5.19088 9.72906 4.62268 9.71425C3.99621 9.69944 2.80153 9.35885 1.89824 9.06268C0.805552 8.70728 -0.068601 8.51477 0.00424505 7.89283C0.0479527 7.56704 0.485029 7.24126 1.3009 6.90067Z" fill="white"/>
</svg>
